<svg xmlns="http://www.w3.org/2000/svg" xmlns:xlink="http://www.w3.org/1999/xlink" version="1.1" style="enable-background:new 0 0 512 512;" xml:space="preserve" width="512" height="512"><rect id="backgroundrect" width="100%" height="100%" x="0" y="0" fill="none" stroke="none"/>




















<g class="currentLayer" style=""><title>Layer 1</title><g id="svg_1" class="selected" fill="#0066cc" fill-opacity="1" stroke-opacity="1" stroke="#0066cc">
	<g id="svg_2" fill="#0066cc" fill-opacity="1" stroke="#0066cc">
		<path d="M437.02,74.98C388.667,26.628,324.38,0,256,0S123.333,26.628,74.98,74.98C26.628,123.333,0,187.62,0,256    s26.628,132.667,74.98,181.02C123.333,485.372,187.62,512,256,512s132.667-26.628,181.02-74.98    C485.372,388.667,512,324.38,512,256S485.372,123.333,437.02,74.98z M256,491.602c-129.911,0-235.602-105.69-235.602-235.602    S126.089,20.398,256,20.398S491.602,126.089,491.602,256S385.911,491.602,256,491.602z" id="svg_3" fill="#0066cc" fill-opacity="1" stroke="#0066cc"/>
	</g>
</g><g id="svg_4" class="selected" fill="#0066cc" fill-opacity="1" stroke-opacity="1" stroke="#0066cc">
	<g id="svg_5" fill="#0066cc" fill-opacity="1" stroke="#0066cc">
		<path d="M256,48.956C141.835,48.956,48.956,141.835,48.956,256S141.835,463.044,256,463.044S463.044,370.165,463.044,256    S370.165,48.956,256,48.956z M256,442.645c-102.917,0-186.645-83.728-186.645-186.645S153.083,69.355,256,69.355    S442.645,153.083,442.645,256S358.917,442.645,256,442.645z" id="svg_6" fill="#0066cc" fill-opacity="1" stroke="#0066cc"/>
	</g>
</g><g id="svg_7" class="selected" fill="#0066cc" fill-opacity="1" stroke-opacity="1" stroke="#0066cc">
	<g id="svg_8" fill="#0066cc" fill-opacity="1" stroke="#0066cc">
		<path d="M263.743,239.688v-75.076c22.704,1.211,31.787,11.201,37.235,11.201c5.448,0,8.778-7.265,8.778-11.201    c0-9.989-24.218-17.557-46.015-18.466v-8.778c0-3.028-3.633-5.752-6.963-5.752c-3.936,0-6.963,2.725-6.963,5.752v9.384    c-26.337,1.817-55.096,13.926-55.096,52.069c0,38.749,28.456,47.831,55.096,57.216v88.094    c-37.537-0.908-44.197-24.823-51.463-24.823c-4.541,0-9.081,6.357-9.081,11.201c0,10.898,22.403,32.393,60.546,32.695V374.1    c0,3.027,3.028,5.751,6.963,5.751c3.33,0,6.963-2.724,6.963-5.751v-11.807c30.272-3.936,51.463-22.704,51.463-59.335    C315.206,261.485,288.87,248.771,263.743,239.688z M250.423,235.15c-19.677-6.963-36.629-14.531-36.63-38.144    c0-22.402,17.559-30.575,36.63-32.089V235.15z M262.836,343.527v-82.644c18.163,7.568,32.996,17.557,32.997,43.895    C295.833,327.179,284.026,340.196,262.836,343.527z" id="svg_9" fill="#0066cc" fill-opacity="1" stroke="#0066cc"/>
	</g>
</g><g id="svg_10" class="selected" fill="#0066cc" fill-opacity="1" stroke-opacity="1" stroke="#0066cc">
	<g id="svg_11" fill="#0066cc" fill-opacity="1" stroke="#0066cc">
		<path d="M417.218,288.989c-5.437-1.469-11.036,1.754-12.502,7.193c-6.164,22.874-17.796,44.372-33.636,62.168    c-3.745,4.207-3.37,10.654,0.837,14.399c1.944,1.73,4.365,2.58,6.777,2.58c2.81,0,5.607-1.155,7.622-3.419    c17.937-20.152,31.111-44.503,38.095-70.421C425.878,296.052,422.657,290.455,417.218,288.989z" id="svg_12" fill="#0066cc" fill-opacity="1" stroke="#0066cc"/>
	</g>
</g><g id="svg_13" class="selected" fill="#0066cc" fill-opacity="1" stroke-opacity="1" stroke="#0066cc">
	<g id="svg_14" fill="#0066cc" fill-opacity="1" stroke="#0066cc">
		<path d="M420.207,245.801c-5.633,0-10.199,4.566-10.199,10.199c0,1.595-0.025,3.206-0.072,4.788    c-0.172,5.63,4.251,10.335,9.882,10.506c0.107,0.004,0.212,0.005,0.318,0.005c5.488,0,10.019-4.363,10.188-9.887    c0.055-1.789,0.083-3.609,0.083-5.412C430.406,250.367,425.84,245.801,420.207,245.801z" id="svg_15" fill="#0066cc" fill-opacity="1" stroke="#0066cc"/>
	</g>
</g><g id="svg_16">
</g><g id="svg_17">
</g><g id="svg_18">
</g><g id="svg_19">
</g><g id="svg_20">
</g><g id="svg_21">
</g><g id="svg_22">
</g><g id="svg_23">
</g><g id="svg_24">
</g><g id="svg_25">
</g><g id="svg_26">
</g><g id="svg_27">
</g><g id="svg_28">
</g><g id="svg_29">
</g><g id="svg_30">
</g></g></svg>