<svg xmlns="http://www.w3.org/2000/svg" xmlns:xlink="http://www.w3.org/1999/xlink" version="1.1" style="enable-background:new 0 0 480 480;" xml:space="preserve" width="500" height="427.9411766685829"><rect id="backgroundrect" width="100%" height="100%" x="0" y="0" fill="none" stroke="none" class="" style=""/>










































<g class="currentLayer" style=""><title>Layer 1</title><g id="svg_1" class="" fill="#0066cc" fill-opacity="1" stroke-opacity="1" stroke="#0066cc">
	<g id="svg_2" fill="#0066cc" fill-opacity="1" stroke="#0066cc">
		<path d="M369.05882263183594,248.9401754012108 c0,-17.648 -14.352,-32 -32,-32 s-32,14.352 -32,32 v16 c0,17.648 14.352,32 32,32 c6.832,0 13.136,-2.192 18.336,-5.848 c3.84,8.152 12.072,13.848 21.664,13.848 c13.232,0 24,-10.768 24,-24 v-32 c0,-35.288 -28.712,-64 -64,-64 c-35.288,0 -64,28.712 -64,64 v24 c0,35.288 28.712,64 64,64 h40 c13.232,0 24,-10.768 24,-24 h-16 c0,4.408 -3.584,8 -8,8 h-40 c-26.472,0 -48,-21.528 -48,-48 v-24 c0,-26.472 21.528,-48 48,-48 s48,21.528 48,48 v32 c0,4.408 -3.584,8 -8,8 c-4.416,0 -8,-3.592 -8,-8 v-16 V248.9401754012108 zM353.05882263183594,264.9401754012108 c0,8.824 -7.176,16 -16,16 c-8.824,0 -16,-7.176 -16,-16 v-16 c0,-8.824 7.176,-16 16,-16 c8.824,0 16,7.176 16,16 V264.9401754012108 z" id="svg_3" fill="#0066cc" fill-opacity="1" stroke="#0066cc"/>
	</g>
</g><g id="svg_70" class="" fill="#0066cc" fill-opacity="1" stroke-opacity="1" stroke="#0066cc">
	<g id="svg_71" fill="#0066cc" fill-opacity="1" stroke="#0066cc">
		<path d="M498.23530197143555,80.24121299960007 v-18.006920693414486 h-74.73529529571533 h-8.303921699523926 H8.303921699523926 c-4.592068699836731,0 -8.303921699523926,4.033550235324845 -8.303921699523926,9.003460346707243 v252.0968897078028 c0,24.822540175871872 18.625696372032163,45.017301733536215 41.51960849761963,45.017301733536215 h348.7647113800049 c22.893912125587466,0 41.51960849761963,-20.194761557664343 41.51960849761963,-45.017301733536215 v-171.06574658743762 h16.60784339904785 v-18.006920693414486 h-16.60784339904785 v-18.006920693414486 h41.51960849761963 v-18.006920693414486 h-41.51960849761963 v-18.006920693414486 H498.23530197143555 zM389.53696692466735,80.24121299960007 L215.90196418762207,178.13583734934792 L42.26696145057678,80.24121299960007 H389.53696692466735 zM415.1960849761963,323.33464236069574 c0,14.89172341345378 -11.177078607559205,27.01038104012173 -24.911765098571777,27.01038104012173 H41.51960849761963 c-13.734686491012573,0 -24.911765098571777,-12.118657626667948 -24.911765098571777,-27.01038104012173 V86.06645184391965 l195.4660128850937,110.20235464369667 c1.2040686464309693,0.675259526003055 2.5160882749557496,1.0173910191779185 3.82810790348053,1.0173910191779185 c1.3120196285247803,0 2.624039257049561,-0.34213149317488417 3.82810790348053,-1.0173910191779185 L415.1960849761963,86.06645184391965 V323.33464236069574 z" id="svg_72" fill="#0066cc" fill-opacity="1" stroke="#0066cc"/>
	</g>
</g><g class="" fill="#0066cc" fill-opacity="1" stroke-opacity="1" stroke="#0066cc" id="svg_4">
	<g id="svg_6" fill="#0066cc" fill-opacity="1" stroke="#0066cc">
		<rect x="32" y="325.05781358480453" width="16" height="16" id="svg_75" fill="#0066cc" fill-opacity="1" stroke="#0066cc"/>
	</g>
</g><g class="" fill="#0066cc" fill-opacity="1" stroke-opacity="1" stroke="#0066cc" id="svg_8">
	<g id="svg_10" fill="#0066cc" fill-opacity="1" stroke="#0066cc">
		<rect x="64" y="325.05781358480453" width="16" height="16" id="svg_78" fill="#0066cc" fill-opacity="1" stroke="#0066cc"/>
	</g>
</g><g id="svg_79" class="" fill="#0066cc" fill-opacity="1" stroke-opacity="1" stroke="#0066cc">
	<g id="svg_80" fill="#0066cc" fill-opacity="1" stroke="#0066cc">
		<rect x="95.4117660522461" y="325.05782532691956" width="16" height="16" id="svg_81" fill="#0066cc" fill-opacity="1" stroke="#0066cc"/>
	</g>
</g><g id="svg_82" class="">
</g><g id="svg_83" class="">
</g><g id="svg_84" class="">
</g><g id="svg_85" class="">
</g><g id="svg_86" class="">
</g><g id="svg_87" class="">
</g><g id="svg_88" class="">
</g><g id="svg_89" class="">
</g><g id="svg_90" class="">
</g><g id="svg_91" class="">
</g><g id="svg_92" class="">
</g><g id="svg_93" class="">
</g><g id="svg_94" class="">
</g><g id="svg_95" class="">
</g><g id="svg_96" class="">
</g></g></svg>