<svg xmlns="http://www.w3.org/2000/svg" xmlns:xlink="http://www.w3.org/1999/xlink" version="1.1" style="" xml:space="preserve" width="512" height="512"><rect id="backgroundrect" width="100%" height="100%" x="0" y="0" fill="none" stroke="none"/>



























<g class="currentLayer" style=""><title>Layer 1</title><g id="svg_1" class="selected" fill-opacity="1" fill="#0066cc" stroke-opacity="1" stroke="#0066cc">
	<g id="svg_2" fill="#0066cc" stroke="#0066cc">
		<path d="M502.01,350.434H9.99c-5.517,0-9.99,4.473-9.99,9.99v137.988c0,5.517,4.473,9.99,9.99,9.99H502.01    c5.517,0,9.99-4.473,9.99-9.99V360.424C512,354.907,507.527,350.434,502.01,350.434z M390.93,370.415h42.491v26.017H390.93    V370.415z M456.418,416.409v26.018h-26.017v-26.018H456.418z M410.423,416.409v26.018h-42.491v-26.018H410.423z M328.459,370.415    h42.491v26.017h-42.491V370.415z M347.952,416.409v26.018h-42.491v-26.018H347.952z M265.99,370.415h42.49v26.017h-42.49V370.415z     M285.483,416.41v26.018h-42.491V416.41H285.483z M203.52,370.415h42.491v26.017H203.52V370.415z M223.013,416.409v26.018h-42.491    v-26.018H223.013z M141.049,370.415h42.491v26.017h-42.491V370.415z M160.541,416.409v26.018h-42.49v-26.018H160.541z     M78.579,370.415h42.491v26.017H78.579V370.415z M98.072,416.41v26.018H55.58V416.41H98.072z M19.979,370.413H58.6v26.017H19.979    V370.413z M19.979,416.409h15.622v26.018H19.979V416.409z M58.6,488.423H19.979v-26.017H58.6V488.423z M121.07,488.423H78.579    v-26.017h42.491V488.423z M183.541,488.423h-42.491v-26.017h42.491V488.423z M308.48,488.423H203.52v-26.017H308.48V488.423z     M370.951,488.423h-42.491v-26.017h42.491V488.423z M433.421,488.423H390.93v-26.017h42.491V488.423z M492.021,488.423H453.4    v-26.017h38.621V488.423z M476.397,442.428V416.41h15.622v26.018H476.397z M492.021,396.431H453.4v-26.017h38.621V396.431z" id="svg_3" fill="#0066cc" stroke="#0066cc"/>
	</g>
</g><g id="svg_4" class="selected" fill-opacity="1" fill="#0066cc" stroke-opacity="1" stroke="#0066cc">
	<g id="svg_5" fill="#0066cc" stroke="#0066cc">
		<path d="M203.662,3.598H9.99C4.473,3.598,0,8.071,0,13.588v308.448c0,5.517,4.473,9.99,9.99,9.99h193.673    c5.517,0,9.99-4.473,9.99-9.99V13.588C213.652,8.071,209.179,3.598,203.662,3.598z M193.673,312.046H19.979V23.577h173.694    V312.046z" id="svg_6" fill="#0066cc" stroke="#0066cc"/>
	</g>
</g><g id="svg_7" class="selected" fill-opacity="1" fill="#0066cc" stroke-opacity="1" stroke="#0066cc">
	<g id="svg_8" fill="#0066cc" stroke="#0066cc">
		<path d="M502.01,3.598H249.405c-5.517,0-9.99,4.473-9.99,9.99v308.448c0,5.517,4.473,9.99,9.99,9.99h252.604    c5.517,0,9.99-4.473,9.99-9.99V13.588C512,8.071,507.527,3.598,502.01,3.598z M492.02,312.046H259.394V66.199H492.02V312.046z     M492.021,46.22H259.394V23.577h232.627V46.22z" id="svg_9" fill="#0066cc" stroke="#0066cc"/>
	</g>
</g><g id="svg_10" class="selected" fill-opacity="1" fill="#0066cc" stroke-opacity="1" stroke="#0066cc">
	<g id="svg_11" fill="#0066cc" stroke="#0066cc">
		<path d="M161.435,53.798H52.216c-5.517,0-9.99,4.473-9.99,9.99c0,5.517,4.473,9.99,9.99,9.99h109.219    c5.517,0,9.99-4.473,9.99-9.99C171.424,58.27,166.951,53.798,161.435,53.798z" id="svg_12" fill="#0066cc" stroke="#0066cc"/>
	</g>
</g><g id="svg_13" class="selected" fill-opacity="1" fill="#0066cc" stroke-opacity="1" stroke="#0066cc">
	<g id="svg_14" fill="#0066cc" stroke="#0066cc">
		<path d="M106.888,95.408H52.216c-5.517,0-9.99,4.473-9.99,9.99c0,5.517,4.473,9.99,9.99,9.99h54.672c5.517,0,9.99-4.473,9.99-9.99    C116.877,99.881,112.405,95.408,106.888,95.408z" id="svg_15" fill="#0066cc" stroke="#0066cc"/>
	</g>
</g><g id="svg_16" class="selected" fill-opacity="1" fill="#0066cc" stroke-opacity="1" stroke="#0066cc">
	<g id="svg_17" fill="#0066cc" stroke="#0066cc">
		<path d="M161.435,137.017H52.216c-5.517,0-9.99,4.473-9.99,9.99c0,5.517,4.473,9.99,9.99,9.99h109.219    c5.517,0,9.99-4.473,9.99-9.99C171.424,141.489,166.951,137.017,161.435,137.017z" id="svg_18" fill="#0066cc" stroke="#0066cc"/>
	</g>
</g><g id="svg_19" class="selected" fill-opacity="1" fill="#0066cc" stroke-opacity="1" stroke="#0066cc">
	<g id="svg_20" fill="#0066cc" stroke="#0066cc">
		<path d="M106.888,178.628H52.216c-5.517,0-9.99,4.473-9.99,9.99c0,5.517,4.473,9.99,9.99,9.99h54.672    c5.517,0,9.99-4.473,9.99-9.99C116.877,183.1,112.405,178.628,106.888,178.628z" id="svg_21" fill="#0066cc" stroke="#0066cc"/>
	</g>
</g><g id="svg_22" class="selected" fill-opacity="1" fill="#0066cc" stroke-opacity="1" stroke="#0066cc">
	<g id="svg_23" fill="#0066cc" stroke="#0066cc">
		<path d="M161.435,220.236H52.216c-5.517,0-9.99,4.473-9.99,9.99c0,5.517,4.473,9.99,9.99,9.99h109.219    c5.517,0,9.99-4.473,9.99-9.99C171.424,224.709,166.951,220.236,161.435,220.236z" id="svg_24" fill="#0066cc" stroke="#0066cc"/>
	</g>
</g><g id="svg_25" class="selected" fill-opacity="1" fill="#0066cc" stroke-opacity="1" stroke="#0066cc">
	<g id="svg_26" fill="#0066cc" stroke="#0066cc">
		<path d="M106.888,261.847H52.216c-5.517,0-9.99,4.473-9.99,9.99c0,5.517,4.473,9.99,9.99,9.99h54.672    c5.517,0,9.99-4.473,9.99-9.99C116.877,266.32,112.405,261.847,106.888,261.847z" id="svg_27" fill="#0066cc" stroke="#0066cc"/>
	</g>
</g><g id="svg_28" class="selected" fill-opacity="1" fill="#0066cc" stroke-opacity="1" stroke="#0066cc">
	<g id="svg_29" fill="#0066cc" stroke="#0066cc">
		<path d="M303.601,184.46l31.551-31.551c3.903-3.9,3.903-10.225,0-14.127c-3.901-3.901-10.227-3.901-14.126,0l-38.614,38.614    c-3.901,3.901-3.901,10.227,0,14.127l38.614,38.614c1.95,1.95,4.507,2.926,7.063,2.926s5.113-0.975,7.063-2.926    c3.901-3.901,3.901-10.227,0-14.127L303.601,184.46z" id="svg_30" fill="#0066cc" stroke="#0066cc"/>
	</g>
</g><g id="svg_31" class="selected" fill-opacity="1" fill="#0066cc" stroke-opacity="1" stroke="#0066cc">
	<g id="svg_32" fill="#0066cc" stroke="#0066cc">
		<path d="M469.004,177.397l-38.614-38.614c-3.901-3.901-10.227-3.901-14.127,0c-3.901,3.901-3.901,10.227,0,14.127l31.551,31.551    l-31.551,31.551c-3.901,3.901-3.901,10.227,0,14.127c1.95,1.95,4.507,2.926,7.063,2.926s5.113-0.975,7.063-2.926l38.614-38.614    C472.905,187.622,472.905,181.297,469.004,177.397z" id="svg_33" fill="#0066cc" stroke="#0066cc"/>
	</g>
</g><g id="svg_34" class="selected" fill-opacity="1" fill="#0066cc" stroke-opacity="1" stroke="#0066cc">
	<g id="svg_35" fill="#0066cc" stroke="#0066cc">
		<path d="M390.015,110.84c-5.352-1.347-10.778,1.905-12.122,7.255l-23.747,94.566c-1.344,5.352,1.905,10.778,7.255,12.122    c0.816,0.205,1.636,0.304,2.44,0.304c4.471,0,8.543-3.025,9.682-7.559l23.747-94.566    C398.614,117.611,395.365,112.184,390.015,110.84z" id="svg_36" fill="#0066cc" stroke="#0066cc"/>
	</g>
</g><g id="svg_37">
</g><g id="svg_38">
</g><g id="svg_39">
</g><g id="svg_40">
</g><g id="svg_41">
</g><g id="svg_42">
</g><g id="svg_43">
</g><g id="svg_44">
</g><g id="svg_45">
</g><g id="svg_46">
</g><g id="svg_47">
</g><g id="svg_48">
</g><g id="svg_49">
</g><g id="svg_50">
</g><g id="svg_51">
</g></g></svg>