<svg xmlns="http://www.w3.org/2000/svg" xmlns:xlink="http://www.w3.org/1999/xlink" version="1.1" style="enable-background:new 0 0 496 496;" xml:space="preserve" width="496" height="496"><rect id="backgroundrect" width="100%" height="100%" x="0" y="0" fill="none" stroke="none"/>
















<g class="currentLayer" style=""><title>Layer 1</title><g id="svg_1" class="" fill-opacity="1" fill="#0066cc" stroke="#0066cc" stroke-opacity="1">
	<g id="svg_2" fill="#0066cc" stroke="#0066cc" stroke-opacity="1">
		<g id="svg_3" fill="#0066cc" stroke="#0066cc" stroke-opacity="1">
			<path d="M457.84,157.712c3.944-11.88,6.16-24.528,6.16-37.712C464,53.832,410.168,0,344,0c-36.272,0-68.768,16.24-90.792,41.76     L248,38.808L0,179.336V496h496V179.336L457.84,157.712z M344,16c57.344,0,104,46.656,104,104s-46.656,104-104,104     c-18.528,0-36.832-5.048-52.92-14.592l-2.96-1.76l-44.472,12.704l12.704-44.472l-1.76-2.96C245.048,156.832,240,138.528,240,120     C240,62.656,286.656,16,344,16z M238.752,62.432C229.36,79.536,224,99.152,224,120c0,20.24,5.208,40.24,15.096,58.048     l-18.744,65.6l65.6-18.744C303.76,234.792,323.76,240,344,240c47.28,0,88.144-27.552,107.688-67.384L473.544,185L248,357.92     L22.456,185L238.752,62.432z M16,200.216l165.472,126.856L16,470.48V200.216z M29.448,480L194.44,337.016L248,378.08     l53.56-41.064L466.552,480H29.448z M480,470.48L314.528,327.072L480,200.216V470.48z" id="svg_4" fill="#0066cc" stroke="#0066cc" stroke-opacity="1"/>
			<path d="M325.16,206.008c6.264,1.328,12.56,1.984,18.816,1.984c12.112,0,24.056-2.48,35.232-7.368l-6.408-14.656     c-13.88,6.072-29.208,7.584-44.328,4.384c-28.576-6.048-50.88-29.512-55.504-58.392c-3.584-22.408,3.096-44.648,18.336-61.016     c15.24-16.36,36.904-24.576,59.224-22.656c32.68,2.864,59.872,28.464,64.672,60.856c1.168,7.936,1.064,15.864-0.336,23.568     C412.84,143.888,402.928,152,391.28,152c-4.016,0-7.28-3.264-7.28-7.28V112c0-22.056-17.944-40-40-40c-22.056,0-40,17.944-40,40     v16c0,22.056,17.944,40,40,40h24v-16h-24c-13.232,0-24-10.768-24-24v-16c0-13.232,10.768-24,24-24s24,10.768,24,24v32.72     c0,12.832,10.448,23.28,23.28,23.28c19.4,0,35.936-13.64,39.328-32.44c1.704-9.416,1.84-19.096,0.416-28.76     c-5.864-39.632-39.136-70.944-79.096-74.456c-27.44-2.416-53.712,7.688-72.344,27.688c-18.624,20-26.8,47.144-22.424,74.456     C262.832,169.856,290.152,198.592,325.16,206.008z" id="svg_5" fill="#0066cc" stroke="#0066cc" stroke-opacity="1"/>
			<rect x="240" y="400" width="16" height="16" id="svg_6" fill="#0066cc" stroke="#0066cc" stroke-opacity="1"/>
			<rect x="272" y="400" width="16" height="16" id="svg_7" fill="#0066cc" stroke="#0066cc" stroke-opacity="1"/>
			<rect x="208" y="400" width="16" height="16" id="svg_8" fill="#0066cc" stroke="#0066cc" stroke-opacity="1"/>
		</g>
	</g>
</g><g id="svg_9">
</g><g id="svg_10">
</g><g id="svg_11">
</g><g id="svg_12">
</g><g id="svg_13">
</g><g id="svg_14">
</g><g id="svg_15">
</g><g id="svg_16">
</g><g id="svg_17">
</g><g id="svg_18">
</g><g id="svg_19">
</g><g id="svg_20">
</g><g id="svg_21">
</g><g id="svg_22">
</g><g id="svg_23">
</g></g></svg>