<svg xmlns="http://www.w3.org/2000/svg" xmlns:xlink="http://www.w3.org/1999/xlink" version="1.1" style="enable-background:new 0 0 480 480;" xml:space="preserve" width="480" height="480"><rect id="backgroundrect" width="100%" height="100%" x="0" y="0" fill="none" stroke="none"/>





























<g class="currentLayer" style=""><title>Layer 1</title><g id="svg_1" class="" fill-opacity="1" fill="#0066cc" stroke-opacity="1" stroke="#0066cc">
	<g id="svg_2" fill="#0066cc" stroke="#0066cc">
		<path d="M421.648,74.336L349.664,2.352C348.216,0.896,346.216,0,344,0H96C73.944,0,56,17.944,56,40v400c0,22.056,17.944,40,40,40    h288c22.056,0,40-17.944,40-40V80C424,77.784,423.104,75.784,421.648,74.336z M352,27.312L396.688,72H352V27.312z M408,440    c0,13.232-10.768,24-24,24H96c-13.232,0-24-10.768-24-24V40c0-13.232,10.768-24,24-24h240v64c0,4.424,3.584,8,8,8h64V440z" id="svg_3" fill="#0066cc" stroke="#0066cc"/>
	</g>
</g><g id="svg_4" class="" fill-opacity="1" fill="#0066cc" stroke-opacity="1" stroke="#0066cc">
	<g id="svg_5" fill="#0066cc" stroke="#0066cc">
		<path d="M128,112c-17.648,0-32,14.352-32,32s14.352,32,32,32s32-14.352,32-32S145.648,112,128,112z M128,160    c-8.824,0-16-7.176-16-16c0-8.824,7.176-16,16-16c8.824,0,16,7.176,16,16C144,152.824,136.824,160,128,160z" id="svg_6" fill="#0066cc" stroke="#0066cc"/>
	</g>
</g><g id="svg_7" class="" fill-opacity="1" fill="#0066cc" stroke-opacity="1" stroke="#0066cc">
	<g id="svg_8" fill="#0066cc" stroke="#0066cc">
		<path d="M128,200c-17.648,0-32,14.352-32,32s14.352,32,32,32s32-14.352,32-32S145.648,200,128,200z M128,248    c-8.824,0-16-7.176-16-16c0-8.824,7.176-16,16-16c8.824,0,16,7.176,16,16C144,240.824,136.824,248,128,248z" id="svg_9" fill="#0066cc" stroke="#0066cc"/>
	</g>
</g><g id="svg_10" class="" fill-opacity="1" fill="#0066cc" stroke-opacity="1" stroke="#0066cc">
	<g id="svg_11" fill="#0066cc" stroke="#0066cc">
		<path d="M128,288c-17.648,0-32,14.352-32,32s14.352,32,32,32s32-14.352,32-32S145.648,288,128,288z M128,336    c-8.824,0-16-7.176-16-16c0-8.824,7.176-16,16-16c8.824,0,16,7.176,16,16C144,328.824,136.824,336,128,336z" id="svg_12" fill="#0066cc" stroke="#0066cc"/>
	</g>
</g><g id="svg_13" class="" fill-opacity="1" fill="#0066cc" stroke-opacity="1" stroke="#0066cc">
	<g id="svg_14" fill="#0066cc" stroke="#0066cc">
		<path d="M128,376c-17.648,0-32,14.352-32,32s14.352,32,32,32s32-14.352,32-32S145.648,376,128,376z M128,424    c-8.824,0-16-7.176-16-16c0-8.824,7.176-16,16-16c8.824,0,16,7.176,16,16C144,416.824,136.824,424,128,424z" id="svg_15" fill="#0066cc" stroke="#0066cc"/>
	</g>
</g><g id="svg_16" class="" fill-opacity="1" fill="#0066cc" stroke-opacity="1" stroke="#0066cc">
	<g id="svg_17" fill="#0066cc" stroke="#0066cc">
		<rect x="176" y="152" width="208" height="16" id="svg_18" fill="#0066cc" stroke="#0066cc"/>
	</g>
</g><g id="svg_19" class="" fill-opacity="1" fill="#0066cc" stroke-opacity="1" stroke="#0066cc">
	<g id="svg_20" fill="#0066cc" stroke="#0066cc">
		<rect x="184" y="40" width="112" height="16" id="svg_21" fill="#0066cc" stroke="#0066cc"/>
	</g>
</g><g id="svg_22" class="" fill-opacity="1" fill="#0066cc" stroke-opacity="1" stroke="#0066cc">
	<g id="svg_23" fill="#0066cc" stroke="#0066cc">
		<rect x="160" y="72" width="160" height="16" id="svg_24" fill="#0066cc" stroke="#0066cc"/>
	</g>
</g><g id="svg_25" class="" fill-opacity="1" fill="#0066cc" stroke-opacity="1" stroke="#0066cc">
	<g id="svg_26" fill="#0066cc" stroke="#0066cc">
		<rect x="176" y="240" width="208" height="16" id="svg_27" fill="#0066cc" stroke="#0066cc"/>
	</g>
</g><g id="svg_28" class="" fill-opacity="1" fill="#0066cc" stroke-opacity="1" stroke="#0066cc">
	<g id="svg_29" fill="#0066cc" stroke="#0066cc">
		<rect x="176" y="328" width="208" height="16" id="svg_30" fill="#0066cc" stroke="#0066cc"/>
	</g>
</g><g id="svg_31" class="" fill-opacity="1" fill="#0066cc" stroke-opacity="1" stroke="#0066cc">
	<g id="svg_32" fill="#0066cc" stroke="#0066cc">
		<rect x="176" y="416" width="208" height="16" id="svg_33" fill="#0066cc" stroke="#0066cc"/>
	</g>
</g><g id="svg_34" class="" fill-opacity="1" fill="#0066cc" stroke-opacity="1" stroke="#0066cc">
	<g id="svg_35" fill="#0066cc" stroke="#0066cc">
		<rect x="240" y="120" width="16" height="16" id="svg_36" fill="#0066cc" stroke="#0066cc"/>
	</g>
</g><g id="svg_37" class="" fill-opacity="1" fill="#0066cc" stroke-opacity="1" stroke="#0066cc">
	<g id="svg_38" fill="#0066cc" stroke="#0066cc">
		<rect x="208" y="120" width="16" height="16" id="svg_39" fill="#0066cc" stroke="#0066cc"/>
	</g>
</g><g id="svg_40" class="" fill-opacity="1" fill="#0066cc" stroke-opacity="1" stroke="#0066cc">
	<g id="svg_41" fill="#0066cc" stroke="#0066cc">
		<rect x="176" y="120" width="16" height="16" id="svg_42" fill="#0066cc" stroke="#0066cc"/>
	</g>
</g><g id="svg_43" class="" fill-opacity="1" fill="#0066cc" stroke-opacity="1" stroke="#0066cc">
</g><g id="svg_44" class="" fill-opacity="1" fill="#0066cc" stroke-opacity="1" stroke="#0066cc">
</g><g id="svg_45" class="" fill-opacity="1" fill="#0066cc" stroke-opacity="1" stroke="#0066cc">
</g><g id="svg_46" class="" fill-opacity="1" fill="#0066cc" stroke-opacity="1" stroke="#0066cc">
</g><g id="svg_47" class="" fill-opacity="1" fill="#0066cc" stroke-opacity="1" stroke="#0066cc">
</g><g id="svg_48" class="" fill-opacity="1" fill="#0066cc" stroke-opacity="1" stroke="#0066cc">
</g><g id="svg_49" class="" fill-opacity="1" fill="#0066cc" stroke-opacity="1" stroke="#0066cc">
</g><g id="svg_50" class="" fill-opacity="1" fill="#0066cc" stroke-opacity="1" stroke="#0066cc">
</g><g id="svg_51" class="" fill-opacity="1" fill="#0066cc" stroke-opacity="1" stroke="#0066cc">
</g><g id="svg_52" class="" fill-opacity="1" fill="#0066cc" stroke-opacity="1" stroke="#0066cc">
</g><g id="svg_53" class="" fill-opacity="1" fill="#0066cc" stroke-opacity="1" stroke="#0066cc">
</g><g id="svg_54" class="" fill-opacity="1" fill="#0066cc" stroke-opacity="1" stroke="#0066cc">
</g><g id="svg_55" class="" fill-opacity="1" fill="#0066cc" stroke-opacity="1" stroke="#0066cc">
</g><g id="svg_56" class="" fill-opacity="1" fill="#0066cc" stroke-opacity="1" stroke="#0066cc">
</g><g id="svg_57" class="" fill-opacity="1" fill="#0066cc" stroke-opacity="1" stroke="#0066cc">
</g></g></svg>